<?xml version="1.0" encoding="utf-8"?>
<!-- Generator: Adobe Illustrator 19.1.0, SVG Export Plug-In . SVG Version: 6.00 Build 0)  -->
<!DOCTYPE svg PUBLIC "-//W3C//DTD SVG 1.1//EN" "http://www.w3.org/Graphics/SVG/1.1/DTD/svg11.dtd">
<svg version="1.1" id="Layer_1" xmlns="http://www.w3.org/2000/svg" xmlns:xlink="http://www.w3.org/1999/xlink" x="0px" y="0px"
	 viewBox="0 0 300 300" style="enable-background:new 0 0 300 300;" xml:space="preserve">
<g>
	<path style="fill-rule:evenodd;clip-rule:evenodd;fill:#008F4C;" d="M92.1,228c0.3,0.6,0.6,0.6,1.2,0.9c0.4,0,0.7,0,1,0
		c0.3-0.1,0.6-0.1,0.9-0.1c0.4-0.1,0.7-0.4,1.1-0.5c1.2-0.3,1.4-0.4,1.7-1.1C96,227.4,94,227.7,92.1,228z"/>
	<path style="fill-rule:evenodd;clip-rule:evenodd;fill:#10143F;" d="M196.6,195.6c0.3,0.8,0.6,1.7,1,2.4c1.7,4.2,3.9,8.4,5.8,12.6
		c0.3,0.8,0.9,1,1.7,0.6c1-0.6,1.7-1.4,2.8-2c0.4,0.3,1.1,0.9,1.4,1.2c1.7,1.4,1.5,1.2,3.1,0.4c0.5,0.9,1.3,1.8,1.8,2.7
		c0.4,0.9,1.7,1.4,2.8,1.7c1.3,0.3,2.4,0.3,3.4,0.1c0.9-0.1,1-0.5,0.7-1.4c-0.9-1.2-1.9-2.3-2.8-3.5c-0.7-0.8-1-1.8-1.7-2.7
		c-0.6-1.2-1.3-2.4-1.9-3.6c-0.8-2.2-2.1-4.3-3.2-6.4c-0.2-0.8-0.1-1.6-0.4-2.4c-0.6-1.3-0.9-3.2-1.6-4.5c-1.2-3-2.3-5.8-4-8.5
		c-0.1-1.5-0.3-2.7-0.7-3.8c-0.5-1.4-1.4-2.2-2.2-3.2c-0.4-5.3-1.5-10.1-3.1-14.9c0.1-1.7-0.1-3.4-1.5-4.5c-0.1-1.4,0.1-3.1-0.1-4.8
		c-0.2-2.2-0.9-4.3-1.1-6.3c-0.1-1.7,0.1-2.4,0-4c-0.1-1.1,0.1-2.2,0.1-3.2c0.1-0.1,0.1-0.6,0.3-0.7c0.6-0.4,0.8-1.1,1.2-1.7
		c0.3-0.6,0.7-1,1.1-1.5c0.6-0.9,1.1-1.9,1.7-2.8c0.4,0.6,1.2,0.9,1.7,0.6c0.4-0.1,0.6-0.6,1-0.9c0.4-0.4,0.6-0.5,0.7-0.9
		c0.3-0.5,0.2-1.2,0.1-2.2c0-0.6-0.3-1.2-0.5-1.8c-0.1-0.7-0.4-1.3-0.8-1.9c-0.2-0.3,0-0.7,0-1.2c0-0.4-0.1-0.6-0.2-0.9
		c-0.3-0.6-1.4-1.1-1.5-1.5c-0.2-0.4-0.4-1-0.4-1.6c-0.2-0.2-0.4-0.2-0.5-0.4c-0.1-0.1-0.1-0.4-0.3-0.5c-0.5-0.6-0.9-1-1.4-1.7
		c-0.1-0.1-0.4-0.1-0.5-0.3c-0.1-0.2-0.2-0.6-0.5-0.9c-0.2-0.1-0.6,0.2-1,0.1c-0.2-0.1-0.4-0.3-0.6-0.5v8.9c0,0,0.1,0,0.1,0.1
		c0,0.1-0.1,0.2-0.1,0.4v1.5c0.1,0.1,0.1,0.2,0.2,0.2c-0.1,0.1-0.1,0.1-0.2,0.1v1.6h0.1c0.3,0.4,0.4,1.1,0.4,1.9
		c-0.1,0.1-0.3,0.1-0.3,0.1c-0.1-0.1-0.1-0.3-0.1-0.5V195.6z M179.8,109.4c-0.7-0.4-0.4-0.5-0.7-1.2c-0.1-0.6-0.4-1.2-0.4-1.9
		c0-0.4,0.1-1.4,0.2-2.2c0.1-0.7-0.2-1.7-0.6-2.7c-0.6-1.7-1.9-2.5-3.5-3.3c-0.9-0.4-2.3-0.7-3.6-0.6c-1.2,0-2.4,0.2-3.2,1.2
		c-1.8,0.6-3.1,3.2-4,6.3c-0.6,0.7,0.1,1.7,0.7,2.4c0.4,0.9,0.2,2.1,0.6,3c0.4,0.4,0.9,0.3,1.3,0.6c0,0.4,0.3,1.1,0.4,1.4
		c0.1,0.8-0.1,1.4,0,2.2c0.5,0.6,0.9,0.1,1.4,0.1c-0.2,0.6,0.2,0.7,0.3,1c0.1,0.7,0.4,0.9,0.7,0.9c0.2,0.1,0.1,0.4,0.1,0.4
		c-0.4,0.3-0.7,0.9-1.2,1.2c-0.7,0.8-1.4,1.4-2.2,2.1c-0.3,0.2-0.6,0.3-0.9,0.6c-0.3,0.3-0.7,0.1-1.1,0.4c-0.3,0.1-0.6,0.7-0.8,0.9
		c-0.9,0.8-1.7,1.8-2.7,2.6c-0.4,0.3-0.8,0.4-1.1,0.7c-0.7,0.6-1.2,1.3-1.9,1.9c-0.4,0.4-0.9,0.6-1.3,0.9c-0.6,0.5-1.1,1.1-1.6,1.6
		c-0.9,0.6-1.9,0.6-2.7,1.2c-0.9,0.5-1.4,1.2-2.2,1.7c-1.5,1.1-3.2,2.2-4.8,3.2c-0.2,0.1-0.4,0-0.5,0.1c-0.6,0.2-1.2,0.5-1.9,0.8
		c-0.6,0.1-1.2,0.3-1.7,0.6c-0.5,0.2-0.9,0.4-1.2,0.6c-0.4,0.2-0.6,0.3-0.6,0.5c0,0.3,0.5,0.5,0.5,1.2c-0.3,0.1-0.7,0.4-1.2,0.5
		c-0.4,0.1-0.7,0.1-1,0.1c-1.2-0.2-2-0.4-3.3-0.2c-0.6,0.2-1.4,0.6-2,0.8c-0.5,0.4-0.6,0.8-0.2,1.7c-0.3,0.6-0.3,1.3,0.1,1.7
		c-0.3,0.4-0.4,0.7-0.3,1.3c0,0.1-0.2,0.1-0.3,0.2c-0.1,0.2-0.1,0.4-0.1,0.6c0.6,0.1,1.2,0.1,1.9,0.3c0.1,0.8-0.1,1.8-0.2,2.7
		c-0.1,0.2,0.1,0.5,0.3,0.6c0.6,0.1,0.6-0.5,1.1-1.2c0.2-0.3,0.6-0.4,1-0.6c0.4-0.2,0.9-0.6,1.4-0.7c0.4-0.1,0.6-0.4,0.9-0.5
		c0.6-0.4,1.3-0.6,1.8-0.9c0.4-0.3,0.6-0.6,1-0.9c0.2-0.1,0.4,0.1,0.6,0.1c0.3-0.1,0.4-0.5,0.9-0.3c0.1,0.1,0.1,1,1.7,0.9
		c0.9-0.1,2.4-0.6,3.9-1.2c0.6-0.1,1-0.2,1.6-0.4c1.1-0.5,2.1-1.3,3-1.8c3.5-1.9,7.1-4.3,10.2-6.6c1.2-0.9,2.6-1.7,3.5-2.4
		c1-0.6,1.5-1.3,2.2-1.4c0.5-0.1,0.8,0.1,0.9,0.2c0.6,1.4,2.2,4.1,3.4,6.8c0.4,0.6,0.7,1.4,1.1,2.1c0.4,0.9,0.8,1.9,1.2,2.7
		c0.8-0.4,1-0.9,1.8-0.5c-0.9,0.6-1.4,1.7-1.7,2.7c-0.3,0.3-1,0.4-1.2,0.8c-0.1,0.4,0.3,1.2,0.1,1.6c-0.1,0.3-0.4,0.4-0.6,0.6
		c-0.2,0.4-0.3,0.8-0.5,1.2c-0.6,0.7-1.2,1.4-1.1,2.4c-0.7,2.2-1.8,4-2.4,6.2c-1.2,4.2-1.8,8.9-2.7,13.2c-0.2,1.2-0.6,2.4-0.9,3.7
		c-1.7,6.9-3.4,13.8-5,20.7c-0.4,1.8-0.8,3.5-1.2,5.3c-0.3,1.1-0.4,2.2-0.6,3.2c-0.9,0.4-1.5,1.4-2.3,3c-0.6,1.3-1.4,2.7-1.8,4.5
		c-0.8,0.7-1.3,1.2-2.1,1.9c-0.7,0.5-1.7,0.9-2.4,1.6c-0.6,0.8-0.3,1.7,0.5,2c3.2,0.4,4,0.4,6.8-1c0.7-0.8,1.4-1.6,2.2-2.4
		c1.1,0.6,1.7,1.4,2.2,1.4c0.9-0.1,1.4-0.4,3.7-0.7c0.7-0.1,1.4-0.3,2.1-0.4c0.5-0.1,0.9-0.3,1-0.6c0.1-1.1,0.3-2,0.3-3
		c0.1-1.7-0.3-3.5-0.6-5.5c0.5-1.4,0.9-2.8,1.4-4.2c1-2.5,2.2-5,3.2-7.3c0.8-1.9,1.5-3.8,2.1-5.7c1.7-5.1,2.8-10.2,4.5-15.2
		c1.7-3.6,3.4-7.3,5.1-10.7c0.5,1.2,1.3,2.4,1.7,3.7c2,5.4,3.1,10.9,5.1,16.3c1.7,4.2,3.4,8.5,5.2,12.7v-66.9
		c-0.1-0.5-0.2-1-0.4-1.5c0.1,0,0.3,0,0.4,0v-1.6c-0.3,0.1-0.6,0.1-0.9,0c-0.4-0.9-0.6-1.7-0.9-2.5c0-0.2-0.1-0.7-0.1-1.1
		c0.1-0.1,0.2-0.2,0.4-0.2c0.4,0.1,0.1,0.4,0.1,0.4s-0.4,0.4-0.1,0.5c0.4,0.1,0.5,0.1,0.5,0.1c0,0.1,0.1,0.1,0.1,0.2
		c0.1,0.1,0.4,0.3,0.4,0.3c0.1,0,0.3-0.1,0.4,0v-8.9c-0.2-0.2-0.4-0.5-0.7-0.6c-0.3-0.3-0.7-0.2-1.1-0.4c-0.4-0.2-0.6-0.6-0.9-0.6
		c-0.8-1.4-1.9-2.9-3.5-4.4c-0.4-0.4-1.1-0.6-1.7-0.7c-1-0.1-2.2,0.1-3,0.3c0,0-0.7,0.5-1.7,0.9c-0.6,0.1-1,0-1.7,0.1
		C181.2,109.1,180.1,109.6,179.8,109.4L179.8,109.4z M196.6,123.8v1.5c-0.2-0.4-0.4-0.9-0.1-1C196.5,124.1,196.6,123.9,196.6,123.8z
		"/>
	<path style="fill-rule:evenodd;clip-rule:evenodd;fill:#FFFFFF;" d="M174.2,118c0.8,3.1,1.7,6.7,2.6,9.9c2.1,4.7,4.2,9.4,6.3,14.1
		c1.2,0.6,2.2,1.2,3.3,1.8c1.4-2.4,2.1-5.5,2.4-9.1c0.4-4.2,0.2-8.4-0.3-12.7c-1.4-4-2.9-7.3-5.3-8.9c-0.6-1.2-1.4-2.4-3-3.7
		c2.3,3.2,0.1,6.1-2.3,7.6C176.5,117.8,175.1,118.2,174.2,118z"/>
	<path style="fill-rule:evenodd;clip-rule:evenodd;fill:#FFFFFF;" d="M198.4,124.9c0.9,0.1,1.2,0.1,1.7,0.3c0.8,0.1,1.3,0.4,1.7,0.8
		c0.9,0.9,0.7,2.2,0.6,3.7c0.2-0.4,0.5-0.7,0.6-1c0.6-1.4,0.1-2.9-1-3.7c-0.7-0.5-1.4-0.8-2.2-0.7c0,0-0.2,0.1-0.4,0.2
		C198.8,124.6,198.3,124.9,198.4,124.9z"/>
	<path style="fill-rule:evenodd;clip-rule:evenodd;fill:#FFFFFF;" d="M139.7,139.9c-0.4,0.1-0.8,0.4-1.1,0.6
		c1.6,0.6,2.2,1.9,2.8,3.2c0.2,1.2-0.2,1.6-0.6,1.8c0,0.2,0.2,0.2,0.4,0.2c0.3-0.2,0.6-0.4,0.7-0.6c0.4-0.4,0.6-0.9,0.4-1.7
		C142.1,141.7,141.1,140.9,139.7,139.9z"/>
	<path style="fill-rule:evenodd;clip-rule:evenodd;fill:#10143F;" d="M132.5,146.5c-1.2-0.6-1.7,0.1-2.2,1.2c-0.8-0.2-2.2-0.4-3-0.6
		c-3.7-2.7-7.1-5.7-11.2-8.6c-2.1-2.5-4.5-5.1-6.6-7.6c-2-2.4-3.3-4.3-5.3-5.8c-0.8-0.6-1.2-0.8-2.2-1.3c-1.2-1.9-2.6-3.4-3.7-4.5
		c0.1-0.9-0.8-3-0.8-4c0.1-0.6,0.5,0.4,1.7-0.3c0.7-0.4,1.3-1.7,1.4-2.4c0.4-1.5,0.4-2.4,0.4-3c0-0.5-0.1-0.9-0.3-1.4
		c-0.5-1-1.4-1.7-2.8-1.5c-0.1-0.1-0.4-2.2-1.5-4c-0.5-0.7-1-1.2-1.6-1.6c-0.4-0.3-0.9-0.5-1.2-0.8c0.4-3.1-0.4-6.2-0.9-9.5
		c-0.1-0.9-0.2-2.4-0.3-3.3c-0.1-0.7-0.3-1.4-0.3-2.1c-0.1-0.8-0.1-1.5-0.1-2.3c-0.1-1-0.6-2.1-1-3.3c0.6-1.3,1.2-1.9,1.6-2.9
		c0.1-0.3,0.1-0.4,0.3-0.7c0-0.1,0.1-0.2,0.1-0.4c0-0.6-0.4-0.4-0.6-0.1c-0.2,0.3-0.4,0.6-0.6,1c-0.3,0.5-0.6,1-1,1.4
		c-0.1,0.1-0.3,0.1-0.4-0.1c-0.1-1.1,0.1-2.2,0.1-3.3c0-0.2,0.1-2.4-0.6-1.9c-0.2,0.2-0.3,0.7-0.4,1.4c-0.1,0.8-0.2,1.8-0.4,2.8
		c-0.1-0.2-0.5-0.5-0.8-1.1c-0.4-0.6-0.3-0.5-0.4-1.1c-0.1-0.4,0.1-1.8,0.1-2.2c0-0.1-0.1-0.2-0.3-0.1s-0.3,0.3-0.3,0.2
		c-0.1-0.4-0.2-1-0.6-0.3c-0.2,0.4-0.3,0.9-0.3,1.6c-0.1,1.7,0.4,3.5,0.1,5.2c-0.1,0.4-0.4,0.6-0.7,0.8c-1,0.4-1.9,0.2-3,0.5
		c-0.1,0.1-0.4,0.1-0.5,0.2c-0.2,0.2-0.2,0.6,0.4,0.7c0.3,0.1,0.6,0,0.9,0c0.4,0,0.8,0,1.1,0c0.6-0.1,1.2-0.1,1.9,0
		c0.1,0,0.6,0.4,1.2,0.6c0.4,0.1,0.8,0.1,0.9,0.1c0.3,0.4,0.3,1.2,0.3,1.9c0,1.2-0.1,2.4-0.1,3.1c-0.1,0.9-0.5,1.8-0.5,2.7
		c-0.5,3.7-0.5,7.3-0.4,10.9c-1.7,1-3.6,2.1-4.4,3.5c-0.3,0.5-0.3,1.1-0.2,1.7c-0.1,0.6-0.1,1.2-0.1,1.7c0,0.3,0.1,0.8,0,1.1
		c-0.1,0.6,0,0.5,0.1,0.9c0,0.3,0.3,0.7,0.5,1c-0.4,0-0.4,0.1-0.8-0.1c0.5,0.4,0.6,0.5,0.9,0.6c0.1,0.4,0.1,0.6,0.3,0.8
		c0.1,0.2,0.3,0.4,0.3,0.5c0.1,0.3-0.1,0.6-0.1,1c-0.1,0.5-0.1,0.8,0.1,1c0.1,0.1,0.3,0.1,0.4,0.2c0.1,0,0.4,0.1,0.6,0.1
		c0.1,0.5,0.1,0.9,0.1,1c0.1,0.1,0.1,0.1,0.4,0.5c0,0.2,0.1,0.5,0.1,0.7c0.1,0.2,0.4,0.3,0.5,0.6c0.4,1.2,0.5,1.3,1.1,1.6
		c-0.2,0.3-0.4,1.1-0.7,1.5c-0.6,0.7-1.4,1.2-2.1,1.9c-1.8,1.5-4.1,3.1-5.4,4.8c-0.9,0.9-1.2,2.1-1.2,3c0.1,0.7,0.1,1.5,0.3,2.2
		c0.1,0.8,0.6,1.5,0.8,2.3c0.3,1.9,0.1,3.8,0.6,5.7c0.4,1.2,0.9,2.4,1.1,3.7c0.6,1.1,0.8,1.7,1.1,2.5c0.4,1.2,0.7,2.5,0.6,3.8
		c-0.1,0.9,0.9,1.9,1,2.8c0.4,2.2,1.4,4.1,2.5,5.8c1.8,2.7,3.8,5.3,5.7,8c0,0.3,0.2,0.6,0.3,0.9c1.5,7.1,2.2,14.4,3.7,21.5
		c0,3.1,1.6,6.3,1.4,9.2c-0.1,1.7-0.2,3.5-0.3,5.3c0,1.1,0,2.2,0,3.4c0,1.4-0.2,2.9-0.4,4.2c-0.4,1.3-0.9,2.2-1.2,3.4
		c-0.1,0.7-0.4,1.4-0.5,2.2c-0.1,0.6-0.1,1.3-0.3,1.8c-0.3,1.7-0.7,3.5-1,5.2c-0.4,0.7-1.1,1.4-1.4,2.2c-0.2,0.6-0.4,1.3-0.1,1.6
		c0.2,0.2,0.9,0,1.6,0.1c0.3-0.1,0.6,0.2,0.9,0.2c0.3,0,0.6-0.1,0.9-0.1c0.2,0,0.4,0.1,0.6,0.1c0.3,0,0.5-0.1,0.7-0.2
		c0.7-0.1,1.4-0.5,2.1-1.4c0.5-1,0.9-1.4,1.1-2.3c0.1-0.6,0.5-1.5,0.3-3c0.5-1.4,0.9-2.5,1-3.5c0.1-1-0.4-2-0.6-3.6
		c-0.1-0.8,0.4-2.2,0.6-2.9c1-2.9,2.2-5.7,2.9-8.3c1.5-7.7,0.4-12.5,0.1-18.4c2.3,1.9,3.1,3.5,5.3,5.4c2.1,4.6,5,9.6,7.1,14.8
		c0.4,1.4,0.8,2.7,0.9,4c0.2,1.1,0.9,2.2,1.4,3.7c0.6,1.9,2,4.8,2.2,6.8c0.2,1,0,2.2,0.7,2.1c1.7-1.4,2.3-3,1.7-4.8
		c0.4-2.7,1.6-5.5,1.9-8.3c-0.8-1.3-2.4-1.7-3.2-3c-0.3-0.6-0.6-1.6-0.9-2.4c-0.9-2.5-0.6-5.5-1.4-8.1c-0.2-0.8-0.5-1.6-0.7-2.4
		c-0.9-3-3-6-5.2-8.8c-1.2-1.7-2.4-3.2-3.7-4.5c-1.2-4.7-2-7.3-4.2-11.4c-0.1-4.9-0.7-9.5-4.1-13c-1.6-0.6-3-1.6-4.1-2.5
		c-2.6-2.3-2-4.6-1.4-7.8c0.4-2.7,1.4-5.4,4-9.4c0.6-0.6,1.2-0.9,1.8-1.5c2.5,1.9,4.2,3.7,7.1,6c2,1.5,4.2,2.9,6.2,4.5
		c0.6,0.4,1.9,1.3,3.3,2.2c1.4,0.9,2.7,1.7,3.2,2.1c1.7,1.2,2.2,1.6,2.8,2.1c0.4,0.3,0.8,0.6,1.8,0.9c1.1,0.4,2,0.4,3.7-0.3
		c0.8-0.3,1.9-0.6,3-1.4C133.5,149,134.5,146.6,132.5,146.5z"/>
	<path style="fill:#4561AB;" d="M92.9,89.6c0.3,0.1,0.5-0.1,0.6-0.5c0.1-0.4-0.1-0.6-0.4-0.7l-5-0.9c-0.3-0.1-0.6,0.1-0.6,0.5
		c-0.1,0.3,0.1,0.6,0.4,0.6L92.9,89.6z"/>
	<path style="fill:#4561AB;" d="M92.8,90.6c0.3,0,0.6-0.2,0.6-0.5c0-0.3-0.1-0.6-0.4-0.6l-5.1-0.9c-0.3-0.1-0.6,0.1-0.6,0.5
		c-0.1,0.3,0.1,0.6,0.4,0.6L92.8,90.6z"/>
	<path style="fill-rule:evenodd;clip-rule:evenodd;fill:#4561AB;" d="M129.5,147.2c-0.2-0.2-0.5-0.3-0.8-0.1c0,0-0.1,0.1-0.1,0.1
		c0,0-0.6-0.4-0.7-0.4s-0.3-0.1-0.4,0.1c-0.1,0.1-0.1,0.4,0.1,0.9c0.2,0.8,0.1,1.7-0.4,2.5c-0.2,0.4-0.5,0.9-0.9,1.1
		c-0.9,0.6-0.7-0.3-0.8-0.4s-0.7-0.4-0.7-0.4c0.2,1,0.2,1.6,1.4,1.7c0.3,0,0.6,0.1,0.7,0.1c0.9,0.6,1.4,0.6,2.2-0.4
		c0.4-0.4,0.4-0.9,0.6-1.9c0.1-0.6,0.2-1.2,0.1-1.9C129.7,147.9,129.7,147.5,129.5,147.2z"/>
	<path style="fill:#4561AB;" d="M94.7,111.7c-0.1,0.1-0.3,0.2-0.4,0.4c-0.2,0.3-0.4,0.7-0.4,1.2l0,0l0,0l0,0l0,0
		c0,0.5,0.1,0.9,0.4,1.2c0.2,0.4,0.6,0.6,0.9,0.6l0,0l0,0l0,0l0,0c0.4,0,0.7-0.2,1-0.6c0.2-0.3,0.4-0.7,0.4-1.2l0,0l0,0l0,0l0,0
		c0-0.5-0.1-0.9-0.4-1.2c-0.1-0.2-0.3-0.4-0.5-0.4c-0.1,0.1-0.1,0.3-0.2,0.4c0.1,0.1,0.2,0.1,0.3,0.3c0.1,0.2,0.3,0.6,0.3,0.9
		c-0.1,0-0.1,0-0.1,0l0,0l0,0c0,0,0,0,0.1,0c-0.1,0.4-0.1,0.7-0.3,1c-0.1,0.2-0.4,0.4-0.6,0.4l0,0l0,0l0,0l0,0
		c-0.2,0-0.4-0.1-0.5-0.4c-0.2-0.3-0.3-0.6-0.3-1l0,0l0,0l0,0l0,0c0-0.4,0.1-0.7,0.3-0.9c0-0.1,0-0.1,0.1-0.1
		C95,112,94.9,111.9,94.7,111.7z"/>
	<path style="fill-rule:evenodd;clip-rule:evenodd;fill:#4561AB;" d="M89.2,119.2c0.1,0.4,0.1,0.9,0.1,1.2c-0.6,1-0.8,1.9-1.4,2.8
		c-0.7,4,2.5,3.7,5.7,3.5c0.4-0.1,0.6-0.1,0.9-0.1l0.6-0.5c0.4-0.3,0.1,0,0.4-0.3l0,0c1.4-1.2,2.7-2.4,4.2-2.9
		c0.6-0.1,1-0.1,1.7-0.1l0,0l0,0c0.1,0,0.1,0,0.2,0c0.3,0,0.4,0.6,0.1,0.6c-0.1,0-0.2,0-0.3,0c-0.6-0.1-1-0.1-1.5,0.1
		c-1.4,0.5-2.7,1.6-4,2.7l0,0l0,0c-0.5,0.4-0.8,0.9-1.2,1.2c0.2,4.2,2,7.1,5.9,7.5c-0.4,0.9-1.1,1.5-1.5,2.4
		c-2.2,1.6-3.5,3.6-4.8,5.9c-0.7,3.1-1.5,6.2-2.2,9.3c0.2,0.5,0.4,0.9,0.6,1.4c0.3,0.6,0.6,1,0.9,1.4c2.2,0.4,3.4-0.8,4.8-1.4
		c0.6-0.6-0.1-1.2-0.6-1.9c0.8,0,2.2,0.5,2.9,0.9c3.3,0.4,3.7,1.2,6,3.7c0.1,0.6-0.6,1.4-0.1,1.5c0.3,1.4,0.6,2.9,0.8,4.2
		c-0.1,2-0.4,4-0.5,6c1.3,3.5,2.5,6.9,3.8,10.4c0.4,1.7,0.8,3.1,0.7,4.5c0,2.5-0.8,4.8-1.7,8c-0.1,0.4-0.3,1.1-0.4,1.3
		c0,0.1-0.9,3-1.6,3.6c-0.6,0.5-2.3,6.3-2.8,6.1c-0.4-0.2-1.9-0.8-2.8-1.2c-1.8-1.7-3.5-3.3-5.3-5c-0.7-1.3-1.4-2.7-2.2-4
		c-1.1-2.2-2.2-4.4-3.2-6.6c-0.4-1.4-0.7-2.5-0.9-3.7c-0.3-2.7-1.6-5.8-1.6-8.2c-0.1-1.3-0.1-2.7-0.2-4c-0.1-2-0.6-3.4-1.4-4.8
		c-0.4-0.8,0.5-1.7,0-2.6c-0.3-0.4-0.6-1.3-1.1-2.1c-0.4-0.7-2.4-3.7-2.9-7.1c-1-1.4-1.2-2.9-1.4-4.3c-0.6-1.9-1.2-3.8-1.9-5.7
		c-1-2.7-1.2-5.8-1.4-8.7c-0.8-1.9-0.9-3.5-0.7-5c0.4-2.6,3.9-4.9,7.2-7.3C86,120.9,87.4,119.9,89.2,119.2z"/>
	<path style="fill-rule:evenodd;clip-rule:evenodd;fill:#4561AB;" d="M122.5,221.2c0.1-0.1,0.2-0.1,0.3-0.2c-0.1,0-0.1,0-0.3,0v-0.6
		c0.1,0,0.3,0.1,0.4,0.1c0.1,0,0.2,0.1,0.2,0.2c0.3-0.3,0.5-0.6,0.6-0.9c0-0.1,0-0.1,0-0.1c-0.1,0-0.1,0-0.2,0.1
		c-0.3,0.1-0.6,0.1-0.9,0.1v-0.5c0.3,0,0.5-0.1,0.7-0.1c0.1-0.1,0.3-0.1,0.4-0.1c0.1,0,0.1-0.1,0.1-0.1c0-0.4,0-0.8,0-1.2
		c-0.2,0.2-0.5,0.4-0.8,0.5c-0.1,0.1-0.3,0.1-0.4,0.2V218c0.1-0.1,0.1-0.1,0.2-0.1c0.4-0.2,0.6-0.4,1-0.7c-0.1-0.1-0.1-0.4-0.1-0.4
		c0-0.1,0-0.3,0-0.4c-0.3,0.4-0.6,0.6-1,0.9l0,0l-0.1,0.1v-0.6c0.4-0.3,0.8-0.6,1-1c-0.1-0.4-0.1-0.9-0.1-1.4
		c-0.3,0.1-0.6,0.1-0.9,0.2V214c0.3-0.1,0.6-0.1,0.9-0.2c0-0.4,0-0.6,0.1-0.9c0.1-0.1,0.1-0.3,0.1-0.4l0,0c-0.1-0.1-0.5-0.1-1.1-0.1
		v-5.4l0.1-0.4c0.1-0.1,0.2-0.2,0.5-0.1c1.9,1,2.9,1.3,3.3,2.4c0.2,0.9,0.1,1.6,0.5,2.4c0.4,1.2,0.9,2,2.2,3c-0.3,0.5-0.6,0.8-1,0.9
		c-0.4-1.1-1.1-1.9-1.9-2.7c-0.1,0-0.6-0.1-1.2-0.1c-0.1,0-0.1,0.1-0.2,0.1l-0.1,0.3c0,0.3,0,0.6,0,0.9c0.4,0.9,0.5,1.8,0.6,2.9
		c0.1,1.6-0.1,2.2-0.8,3.7c-0.6,0.6-1.2,1.3-1.9,1.7h-0.1V221.2z M121.8,221.8c0.1-0.1,0.1-0.1,0.2-0.2c-0.1,0-0.4-0.1-0.5-0.1
		c-0.2-0.1-0.4-0.2-0.5-0.4c-0.1-0.1-0.1-0.3,0-0.4c0.1-0.1,0.3-0.1,0.4,0c0.1,0.1,0.2,0.2,0.4,0.2c0.1,0.1,0.3,0.1,0.4,0.1
		c0.1,0,0.2,0.1,0.2,0.2l0.1-0.1v0.6L121.8,221.8L121.8,221.8z M122.5,221v-0.6c-0.2-0.1-0.5-0.1-0.7-0.3c-0.1-0.1-0.1-0.1-0.2-0.1
		c-0.1-0.1-0.1-0.1-0.1-0.1c0.4,0.1,0.8,0.1,1.1,0v-0.5c-0.4,0.1-0.9,0-1.4-0.1c-0.1,0-0.3,0.1-0.4,0.2c0,0.1,0.1,0.3,0.2,0.3l0,0
		c0,0,0,0.1-0.1,0.1c-0.1,0.1-0.1,0.3,0.1,0.4l0,0c0.1,0.1,0.2,0.1,0.3,0.2c0.1,0,0.1,0.1,0.2,0.1
		C121.8,220.8,122.2,220.9,122.5,221L122.5,221z M122.5,218.6c-0.4,0.2-0.9,0.4-1.5,0.5c-0.1,0.1-0.3,0-0.3-0.1
		c-0.1-0.1,0-0.3,0.1-0.4c0.6-0.1,1.2-0.4,1.7-0.6V218.6L122.5,218.6z M122.5,217.3v-0.6c0,0-0.1,0.1-0.1,0.1l0,0
		c-0.5,0.4-1.1,0.6-1.7,0.8c-0.1,0.1-0.2,0.2-0.2,0.4c0.1,0.1,0.2,0.2,0.4,0.1C121.4,217.8,122,217.6,122.5,217.3L122.5,217.3z
		 M122.5,214.5c-0.3,0.1-0.6,0.1-0.9,0.1c-0.9,0.1-1.7-0.1-2.6-0.9c-0.1-0.1-0.1-0.3-0.1-0.4c0.1-0.1,0.3-0.1,0.4-0.1
		c0.7,0.6,1.5,0.8,2.2,0.8c0.4,0,0.6-0.1,0.9-0.1V214.5L122.5,214.5z M122.5,212.3c-1.3,0.1-3.5,0.4-3.5,0.4
		c-0.3-0.2-0.3-0.4-0.4-0.7c0.7,0.1,1.4,0.1,2.1-0.2c0.3-0.5,0.6-1,0.9-1.5c0.3-0.7,0.5-1.4,0.6-2.2l0.4-1.2V212.3z"/>
	<g>
		<path style="fill:#4561AB;" d="M98.3,227.4c0.1-0.1,0.1-0.3,0-0.4v-0.1l0,0V227.4L98.3,227.4z M98.3,226.1
			c0.1,0.1,0.1,0.3,0.2,0.4c0.1,0.1,0.2,0.1,0.4,0.1c0.1-0.1,0.2-0.2,0.1-0.4c-0.2-0.3-0.4-0.5-0.6-0.7l0,0c0.3,0.1,0.5,0.1,0.7,0.3
			l0,0l0,0c0.1,0.1,0.3,0.1,0.4-0.1c0.1-0.1,0.1-0.3-0.1-0.4l0,0l0,0l0,0c-0.3-0.1-0.5-0.3-0.8-0.4c-0.1-0.1-0.2-0.1-0.3-0.1V226.1
			L98.3,226.1z M98.3,224.6c0.4,0,0.9,0,1.5,0c0.1,0,0.3-0.1,0.3-0.2s-0.1-0.3-0.2-0.3c-0.6-0.1-1.1-0.1-1.6,0V224.6L98.3,224.6z
			 M98.3,226.9L98.3,226.9L98.3,226.9z M96.9,227.9c0,0.1,0.2,0.2,0.3,0.1c0.1-0.1,0.2-0.2,0.1-0.4l0,0c-0.1-0.2-0.1-0.4-0.3-0.6
			c-0.1-0.2-0.2-0.4-0.4-0.6c-0.1-0.1-0.1-0.1-0.2-0.3c0.1,0.1,0.1,0.1,0.2,0.2c0.2,0.1,0.4,0.4,0.6,0.5c0.2,0.2,0.3,0.3,0.5,0.4
			l0,0v0.1c0.1,0.1,0.3,0.1,0.4,0h0.1v-0.4h-0.1c-0.1-0.2-0.3-0.2-0.5-0.4c-0.2-0.2-0.4-0.4-0.7-0.6c-0.2-0.2-0.5-0.4-0.8-0.5
			c0.3,0,0.6,0.1,0.8,0.1c0.6,0.1,1,0.4,1.3,0.6V225c-0.2-0.1-0.4-0.1-0.7-0.2c-0.3,0-0.6-0.1-0.9-0.1c0.5-0.1,1-0.1,1.6-0.1V224
			c-1.3,0-2.4,0.2-3.5,0.4c-0.4-0.4-0.8-0.7-1.2-1c-0.1-0.1-0.2,0.1-0.3,0.1c-0.1,0.1-0.1,0.2,0,0.4c0.2,0.1,0.4,0.3,0.6,0.4
			c-0.3-0.1-0.6-0.1-0.9-0.1c-0.1,0-0.3,0.1-0.3,0.2c0,0.1,0.1,0.2,0.1,0.3c-0.1,0-0.2,0-0.3,0.1c-0.1,0-0.2,0.1-0.2,0.3l0,0
			c-0.1,0.1-0.2,0.1-0.2,0.3c0,0.1,0.1,0.1,0.1,0.2c-0.1,0-0.1,0.1-0.2,0.1c-0.1,0.1-0.1,0.2-0.1,0.4c0.1,0.1,0.1,0.1,0.1,0.1
			c0.1,0,0.2,0,0.3,0c0.7-0.4,1.5-0.6,2.2-0.8c0.1,0,0.4-0.1,0.5-0.1c0.5,0.5,0.9,0.9,1.3,1.4c0.1,0.1,0.2,0.4,0.4,0.6
			C96.7,227.5,96.8,227.6,96.9,227.9L96.9,227.9L96.9,227.9L96.9,227.9L96.9,227.9z M98.3,226.9L98.3,226.9L98.3,226.9z"/>
	</g>
	<path style="fill:#4561AB;" d="M94.5,217.1c-0.3-0.2-0.3,0.4,0,0.6c0.4,0.2,0.7,0.4,1.1,0.6c-0.5,0.1-1,0.3-1.4,0.5
		c-0.1,0.1-0.2,0.3-0.1,0.4c0.1,0.1,0.2,0.1,0.4,0.1c0.5-0.3,1.2-0.4,2-0.5c0.3,0.1,0.6,0.4,0.9,0.6c1,0.6,1.9,1.1,2.7,1.7
		c0.3,0.3,0.6-0.3,0.3-0.5c-0.9-0.6-1.7-1-2.7-1.7l-0.3-0.2c0.6,0,1.2,0,1.9,0c-0.1,0-0.1,0.1-0.1,0.1c0.6,0.3,1.2,0.4,1.7,0.5
		c0-0.2,0.1-0.4,0.1-0.6c0.4,0,0.9,0.1,1.2,0.1s0.4-0.6,0-0.6s-0.7-0.1-1.2-0.1c0.1-1.2-0.1-2.2-0.6-3.5c0,1.2-0.1,2.4-0.7,3.4
		c-1.2-0.1-2.3-0.1-3.5,0.1C95.8,217.8,95.2,217.4,94.5,217.1z"/>
</g>
</svg>
